FILE "Simple 1500 Series Vol. 14 - The Block Kuzushi (Japan) (Culture Publishers).bin" BINARY
  TRACK 01 MODE2/2352
    INDEX 01 00:00:00
  TRACK 02 AUDIO
    INDEX 00 01:32:21
    INDEX 01 01:34:21
  TRACK 03 AUDIO
    INDEX 00 01:40:40
    INDEX 01 01:42:40
  TRACK 04 AUDIO
    INDEX 00 01:48:40
    INDEX 01 01:50:40
  TRACK 05 AUDIO
    INDEX 00 01:58:03
    INDEX 01 02:00:03
REM LEADOUT 06:33:04
